HIERARCHY
ROOT Hips
{
	OFFSET 0.000000 0.000000 0.000000
	CHANNELS 6 Xposition Yposition Zposition Zrotation Yrotation Xrotation 
	JOINT LowerBack
	{
		OFFSET 0.000000 0.000000 0.000000
		CHANNELS 3 Zrotation Yrotation Xrotation
		JOINT Spine
		{
			OFFSET 0.028270 2.035590 -0.193380
			CHANNELS 3 Zrotation Yrotation Xrotation
			JOINT Spine1
			{
				OFFSET 0.056720 2.048850 -0.042750
				CHANNELS 3 Zrotation Yrotation Xrotation
				JOINT Neck
				{
					OFFSET 0.000000 0.000000 0.000000
					CHANNELS 3 Zrotation Yrotation Xrotation
					JOINT Neck1
					{
						OFFSET -0.054170 1.746240 0.172020
						CHANNELS 3 Zrotation Yrotation Xrotation
						JOINT Head
						{
							OFFSET 0.104070 1.761360 -0.123970
							CHANNELS 3 Zrotation Yrotation Xrotation
							End Site
							{
								OFFSET 0.000000 0.000000 0.000000
							}
						}
					}
				}
				JOINT LeftShoulder
				{
					OFFSET 0.000000 0.000000 0.000000
					CHANNELS 3 Zrotation Yrotation Xrotation
					JOINT LeftArm
					{
						OFFSET 3.362410 1.200890 -0.311210
						CHANNELS 3 Zrotation Yrotation Xrotation
						JOINT LeftForeArm
						{
							OFFSET 4.983000 -0.000000 -0.000000
							CHANNELS 3 Zrotation Yrotation Xrotation
							JOINT LeftHand
							{
								OFFSET 3.483560 -0.000000 -0.000000
								CHANNELS 3 Zrotation Yrotation Xrotation
								JOINT LeftFingerBase
								{
									OFFSET 0.000000 0.000000 0.000000
									CHANNELS 3 Zrotation Yrotation Xrotation
									JOINT LeftHandIndex1
									{
										OFFSET 0.715260 -0.000000 -0.000000
										CHANNELS 3 Zrotation Yrotation Xrotation
										End Site
										{
											OFFSET 0.000000 0.000000 0.000000
										}
									}
								}
								JOINT LThumb
								{
									OFFSET 0.000000 0.000000 0.000000
									CHANNELS 3 Zrotation Yrotation Xrotation
									End Site
									{
										OFFSET 0.000000 0.000000 0.000000
									}
								}
							}
						}
					}
				}
				JOINT RightShoulder
				{
					OFFSET 0.000000 0.000000 0.000000
					CHANNELS 3 Zrotation Yrotation Xrotation
					JOINT RightArm
					{
						OFFSET -3.136600 1.374050 -0.404650
						CHANNELS 3 Zrotation Yrotation Xrotation
						JOINT RightForeArm
						{
							OFFSET -5.241900 -0.000000 -0.000000
							CHANNELS 3 Zrotation Yrotation Xrotation
							JOINT RightHand
							{
								OFFSET -3.444170 -0.000000 -0.000000
								CHANNELS 3 Zrotation Yrotation Xrotation
								JOINT RightFingerBase
								{
									OFFSET 0.000000 0.000000 0.000000
									CHANNELS 3 Zrotation Yrotation Xrotation
									JOINT RightHandIndex1
									{
										OFFSET -0.622530 -0.000000 -0.000000
										CHANNELS 3 Zrotation Yrotation Xrotation
										End Site
										{
											OFFSET 0.000000 0.000000 0.000000
										}
									}
								}
								JOINT RThumb
								{
									OFFSET 0.000000 0.000000 0.000000
									CHANNELS 3 Zrotation Yrotation Xrotation
									End Site
									{
										OFFSET 0.000000 0.000000 0.000000
									}
								}
							}
						}
					}
				}
			}
		}
	}
}
}
MOTION
Frames: 9
Frame Time: 0.008333
23.744480 16.253474 2.000122 159.422597 -87.524659 -143.258758 -12.552132 1.621685 -4.753591 -3.159831 2.347693 -4.261278 -4.276316 2.161524 -0.825055 5.123098 -3.639593 -8.255596 -1.374591 -0.097954 -0.202311 0.000000 0.000000 0.000000 -3.685736 17.136906 2.727151 -48.667686 35.313743 12.156724 -5.196524 -18.853866 -0.017944 -1.610051 4.881131 -0.063652 -0.161635 -0.131690 -0.000000 0.000000 0.000000 0.000000 0.000000 0.000000 0.000000 1.942401 2.961079 0.090180 28.179832 55.083402 8.207164 0.286107 76.718903 -0.002441 1.665226 7.103124 0.122134 -0.154028 -0.581204 0.000000 0.000000 0.000000 0.000000 0.000000 0.000000 0.000000 
23.582378 16.212889 2.015027 156.594270 -87.520400 -140.918854 -12.673435 1.567724 -4.308274 -3.206184 2.297403 -4.194866 -4.398795 2.127723 -0.909586 5.320785 -3.271433 -8.225571 -1.496755 -0.107190 -0.208754 0.000000 0.000000 0.000000 -4.145316 16.680774 2.797982 -48.679977 33.979506 11.918592 -5.208942 -17.872317 -0.016167 -1.138873 4.742347 -0.041952 -0.159159 -0.126437 -0.000000 0.000000 0.000000 0.000000 0.000000 0.000000 0.000000 2.507880 3.457018 0.274994 30.838671 54.370061 9.797348 0.320663 76.241473 -0.001988 1.524861 7.066924 0.111368 -0.140761 -0.576048 0.000000 0.000000 0.000000 0.000000 0.000000 0.000000 0.000000 
23.423664 16.168294 2.031214 154.233489 -87.416348 -139.085069 -12.792635 1.530420 -3.845277 -3.252589 2.263538 -4.128950 -4.529995 2.109194 -1.006076 5.519470 -2.871702 -8.172228 -1.630622 -0.117644 -0.209319 0.000000 0.000000 0.000000 -4.626850 16.215468 2.873368 -48.699257 32.590629 11.807266 -5.221622 -16.869277 -0.014562 -0.717304 4.615380 -0.023454 -0.155905 -0.120957 -0.000000 0.000000 0.000000 0.000000 0.000000 0.000000 0.000000 3.115706 4.005145 0.450680 33.522231 53.552064 11.376433 0.358435 75.661348 -0.001790 1.350210 7.041302 0.098402 -0.126498 -0.570015 0.000000 0.000000 0.000000 0.000000 0.000000 0.000000 0.000000 
23.268341 16.119950 2.048685 152.334994 -87.232618 -137.739014 -12.908132 1.504348 -3.372936 -3.297851 2.240826 -4.065414 -4.669071 2.100216 -1.115882 5.721294 -2.440086 -8.091422 -1.775019 -0.129272 -0.202724 0.000000 0.000000 0.000000 -5.125242 15.736310 2.954223 -48.727469 31.144158 11.820357 -5.235515 -15.835647 -0.013137 -0.347333 4.498600 -0.008157 -0.152062 -0.115080 -0.000000 0.000000 0.000000 0.000000 0.000000 0.000000 0.000000 3.762335 4.600295 0.612334 36.222856 52.608250 12.926203 0.400393 74.984961 -0.001881 1.138648 7.033404 0.083333 -0.111364 -0.563256 0.000000 0.000000 0.000000 0.000000 0.000000 0.000000 0.000000 
23.116273 16.068488 2.067249 150.786959 -86.995467 -136.757856 -13.016381 1.483768 -2.897156 -3.340936 2.223362 -4.005067 -4.816170 2.094710 -1.238216 5.932445 -1.983348 -7.981474 -1.929336 -0.142030 -0.188465 0.000000 0.000000 0.000000 -5.627412 15.239319 3.041549 -48.774478 29.626968 11.936767 -5.250977 -14.756364 -0.011887 -0.024249 4.392163 0.004539 -0.147817 -0.108550 -0.000000 0.000000 0.000000 0.000000 0.000000 0.000000 0.000000 4.453848 5.228713 0.755906 38.914296 51.526284 14.423667 0.446925 74.215380 -0.002349 0.880009 7.054160 0.065356 -0.095432 -0.556048 0.000000 0.000000 0.000000 0.000000 0.000000 0.000000 0.000000 
22.967163 16.014723 2.086768 149.455533 -86.731595 -135.995988 -13.111980 1.464220 -2.422940 -3.380647 2.206350 -3.948405 -4.971104 2.087795 -1.371733 6.157572 -1.511353 -7.841909 -2.092455 -0.155812 -0.166361 0.000000 0.000000 0.000000 -6.120526 14.718982 3.135522 -48.850202 28.024869 12.129851 -5.267568 -13.618541 -0.010793 0.264095 4.294736 0.015337 -0.143320 -0.101104 -0.000000 0.000000 0.000000 0.000000 0.000000 0.000000 0.000000 5.193534 5.872476 0.878226 41.572368 50.297139 15.845312 0.497857 73.352541 -0.003255 0.566348 7.113426 0.043773 -0.078854 -0.548633 0.000000 0.000000 0.000000 0.000000 0.000000 0.000000 0.000000 
22.820844 15.959690 2.107027 148.211271 -86.464691 -135.313332 -13.189894 1.442712 -1.954063 -3.415903 2.186484 -3.895380 -5.132637 2.076138 -1.513890 6.398012 -1.034860 -7.674321 -2.262274 -0.170397 -0.136799 0.000000 0.000000 0.000000 -6.591016 14.175309 3.235931 -48.964386 26.313257 12.379307 -5.283659 -12.409396 -0.009818 0.537332 4.202574 0.025038 -0.138639 -0.092488 -0.000000 0.000000 0.000000 0.000000 0.000000 0.000000 0.000000 5.976798 6.511925 0.975668 44.181509 48.913093 17.165429 0.552407 72.391950 -0.004602 0.196730 7.218449 0.018179 -0.061964 -0.541170 0.000000 0.000000 0.000000 0.000000 0.000000 0.000000 0.000000 
22.677310 15.904550 2.127711 146.924495 -86.213376 -134.569642 -13.249466 1.417683 -1.495436 -3.447199 2.162054 -3.846637 -5.301315 2.057950 -1.663504 6.659159 -0.572121 -7.479577 -2.438108 -0.185702 -0.099939 0.000000 0.000000 0.000000 -7.029416 13.583503 3.339715 -49.126740 24.506761 12.609154 -5.298295 -11.139868 -0.008942 0.818232 4.117058 0.034644 -0.133798 -0.082524 -0.000000 0.000000 0.000000 0.000000 0.000000 0.000000 0.000000 6.814581 7.119424 1.052257 46.705185 47.383574 18.365176 0.609893 71.320333 -0.006444 -0.239633 7.378944 -0.012726 -0.044860 -0.533846 0.000000 0.000000 0.000000 0.000000 0.000000 0.000000 0.000000 
22.536231 15.850476 2.148746 145.535314 -85.990643 -133.693836 -13.286227 1.389077 -1.050282 -3.473246 2.132867 -3.800272 -5.472282 2.033143 -1.811349 6.932663 -0.133035 -7.267553 -2.615331 -0.201170 -0.058430 0.000000 0.000000 0.000000 -7.419341 12.979622 3.446168 -49.346013 22.531724 12.847534 -5.306125 -9.787216 -0.008103 1.141329 4.026462 0.045157 -0.128564 -0.071040 -0.000000 0.000000 0.000000 0.000000 0.000000 0.000000 0.000000 7.678840 7.675140 1.100511 49.154289 45.708215 19.417320 0.668371 70.122045 -0.008656 -0.725807 7.596071 -0.048745 -0.028301 -0.526506 -0.000000 0.000000 0.000000 0.000000 0.000000 0.000000 0.000000 
